<svg xmlns="http://www.w3.org/2000/svg" xmlns:xlink="http://www.w3.org/1999/xlink" width="37" height="32" viewBox="0 0 37 32">
  <defs>
    <clipPath id="clip-Artboard_6">
      <rect width="37" height="32"/>
    </clipPath>
  </defs>
  <g id="Artboard_6" data-name="Artboard – 6" clip-path="url(#clip-Artboard_6)">
    <g id="Group_171957" data-name="Group 171957" transform="translate(20003 -17648)">
      <path id="Path_26374" data-name="Path 26374" d="M106,180.357h-1.429V158.643a1.144,1.144,0,0,0-1.143-1.143h-2.857a1.144,1.144,0,0,0-1.143,1.143v21.714H97.716V166.929a1.144,1.144,0,0,0-1.143-1.143H93.716a1.144,1.144,0,0,0-1.143,1.143v13.428H90.858v-9.143a1.144,1.144,0,0,0-1.143-1.143H86.858a1.144,1.144,0,0,0-1.143,1.143v9.143H84V167.214a1.144,1.144,0,0,0-1.143-1.143H80a1.144,1.144,0,0,0-1.143,1.143v13.143H77.144V173.5A1.144,1.144,0,0,0,76,172.357H73.144A1.144,1.144,0,0,0,72,173.5v6.857H70.573a.571.571,0,0,0,0,1.143H106a.571.571,0,1,0,0-1.143Zm-5.429-21.714h2.857v21.714h-2.857Zm-6.857,8.286h2.857v13.428H93.715Zm-6.857,4.285h2.857v9.143H86.858Zm-6.857-4h2.857v13.143H80ZM73.144,173.5H76v6.857H73.144Z" transform="translate(-20073.002 17498.498)" fill="#007fff" stroke="#007fff" stroke-width="0.2"/>
      <path id="Path_26375" data-name="Path 26375" d="M105.51,56.143a.566.566,0,0,0,.384-.138l9.891-8.983,5.047,5.071a.571.571,0,0,0,.808,0l14.719-14.6-.166.571h0a.572.572,0,0,0,.389.708.578.578,0,0,0,.708-.389l.77-2.645a.572.572,0,0,0-.685-.715l-2.665.653a.571.571,0,1,0,.272,1.11l.618-.151L121.24,50.882l-5.03-5.054a.571.571,0,0,0-.789-.02l-10.295,9.351a.562.562,0,0,0,.384.984Z" transform="translate(-20105.652 17612.988)" fill="#007fff" stroke="#007fff" stroke-width="0.2"/>
    </g>
  </g>
</svg>
