<svg xmlns="http://www.w3.org/2000/svg" xmlns:xlink="http://www.w3.org/1999/xlink" width="32" height="32" viewBox="0 0 32 32">
  <defs>
    <clipPath id="clip-Artboard_8">
      <rect width="32" height="32"/>
    </clipPath>
  </defs>
  <g id="Artboard_8" data-name="Artboard – 8" clip-path="url(#clip-Artboard_8)">
    <g id="Group_171959" data-name="Group 171959" transform="translate(12419.768 -14230)">
      <path id="Path_29059" data-name="Path 29059" d="M228.22,250.8v17.953h17.958V250.8Zm16.46,1.5v4.067H229.718V252.3Zm0,5.565v3.827H229.718v-3.827Zm-14.962,9.392v-4.067H244.68v4.067Z" transform="translate(-12640.132 13993.247)" fill="#007fff"/>
      <path id="Path_29060" data-name="Path 29060" d="M269.5,290.28h6.492v1.5H269.5Z" transform="translate(-12678.65 13956.407)" fill="#007fff"/>
      <path id="Path_29061" data-name="Path 29061" d="M269.5,373.82h6.492v1.5H269.5Z" transform="translate(-12678.65 13878.456)" fill="#007fff"/>
      <path id="Path_29062" data-name="Path 29062" d="M269.5,457.36h6.492v1.5H269.5Z" transform="translate(-12678.65 13800.502)" fill="#007fff"/>
      <path id="Path_29063" data-name="Path 29063" d="M116.167,67.261a8.178,8.178,0,0,1-1.613-5.84,7.836,7.836,0,0,1-3.79-6.821,7.723,7.723,0,0,1,4.5-7.177c.62-3.769,4.488-6.656,9.041-6.656a9.334,9.334,0,0,1,8.314,4.529,8.62,8.62,0,0,1,2.958-.855,6.281,6.281,0,0,1,6.021,6.5,6.811,6.811,0,0,1-1.2,3.885A7.121,7.121,0,0,1,142.764,60a7.5,7.5,0,0,1-4.3,6.56l-.7-1.325a6.036,6.036,0,0,0,3.5-5.235,5.692,5.692,0,0,0-2.359-4.487l-.626-.49.525-.6a5.263,5.263,0,0,0,1.29-3.493,4.786,4.786,0,0,0-4.523-5,9.341,9.341,0,0,0-2.974,1.025l-.733.376-.305-.765c-1.026-2.578-3.944-4.309-7.259-4.309-3.972,0-7.314,2.531-7.609,5.762l-.044.479-.454.16a6.175,6.175,0,0,0-3.934,5.934,6.273,6.273,0,0,0,3.427,5.726l.515.244-.1.561A6.868,6.868,0,0,0,116,62.3a6.619,6.619,0,0,0,1.35,4.04Z" transform="translate(-12530.531 14189.234)" fill="#007fff"/>
    </g>
  </g>
</svg>
