<svg xmlns="http://www.w3.org/2000/svg" xmlns:xlink="http://www.w3.org/1999/xlink" width="35" height="32" viewBox="0 0 35 32">
  <defs>
    <clipPath id="clip-Artboard_9">
      <rect width="35" height="32"/>
    </clipPath>
  </defs>
  <g id="Artboard_9" data-name="Artboard – 9" clip-path="url(#clip-Artboard_9)">
    <g id="Group_171951" data-name="Group 171951" transform="translate(17910.596 -21452)">
      <path id="Path_29064" data-name="Path 29064" d="M106.878,44.213a3.273,3.273,0,0,0-2.421,1.069l-3.589-2.431h0A2.782,2.782,0,0,0,100,37.9a2.515,2.515,0,0,0-2.581-1.326,4.055,4.055,0,0,0-.192-.49l5.892-5.111h0a3.286,3.286,0,1,0-.623-.718l-5.777,5.013a4.1,4.1,0,0,0-5.962-.488l-5.038-5.319a3.284,3.284,0,1,0-.689.654l5.1,5.38q-.091.131-.173.27a2.92,2.92,0,0,0-3.239,2.395,2.8,2.8,0,0,0-1.33,1.749l-3.076.688h0a3.279,3.279,0,1,0,.217,1.172c0-.082,0-.164-.01-.245l2.8-.625h0a2.788,2.788,0,0,0,2.766,2.468h4.164l-1.192,6.135c-.051,0-.1,0-.153,0h0a3.284,3.284,0,1,0,1.085.184l1.227-6.317h6.037a2.785,2.785,0,0,0,.594-.065l4.078,2.764a3.281,3.281,0,1,0,2.955-1.854ZM105.26,26.164h0a2.335,2.335,0,1,1-1.648.684,2.332,2.332,0,0,1,1.648-.684ZM79.243,44.1a2.334,2.334,0,1,1,1.648-.684A2.331,2.331,0,0,1,79.243,44.1Zm13.99,8.678h0a2.334,2.334,0,1,1-.684-1.647,2.33,2.33,0,0,1,.684,1.647ZM80.809,27.437a2.334,2.334,0,1,1,.684,1.648A2.333,2.333,0,0,1,80.809,27.437ZM88.083,42.42a1.833,1.833,0,0,1-.735-3.512.475.475,0,0,0,.281-.4,1.96,1.96,0,0,1,2.459-1.747.476.476,0,0,0,.551-.258,3.16,3.16,0,0,1,5.969.735.475.475,0,0,0,.628.358,1.567,1.567,0,0,1,1.986.893.478.478,0,0,0,.356.292,1.833,1.833,0,0,1-.329,3.637Zm18.795,7.406a2.335,2.335,0,1,1,1.648-.684A2.332,2.332,0,0,1,106.878,49.826Z" transform="translate(-17986.563 21427.85)" fill="#007fff" stroke="#007fff" stroke-width="0.6"/>
    </g>
  </g>
</svg>
