<svg xmlns="http://www.w3.org/2000/svg" xmlns:xlink="http://www.w3.org/1999/xlink" width="32" height="32" viewBox="0 0 32 32">
  <defs>
    <clipPath id="clip-Artboard_11">
      <rect width="32" height="32"/>
    </clipPath>
  </defs>
  <g id="Artboard_11" data-name="Artboard – 11" clip-path="url(#clip-Artboard_11)">
    <g id="noun-global-5718951" transform="translate(-105 -35)">
      <path id="Path_29066" data-name="Path 29066" d="M121,36.526A14.476,14.476,0,1,0,135.476,51,14.477,14.477,0,0,0,121,36.526ZM105,51a16,16,0,1,1,16,16A16,16,0,0,1,105,51Z" transform="translate(0 -0.002)" fill="#007fff" fill-rule="evenodd"/>
      <path id="Path_29067" data-name="Path 29067" d="M248.258,40.508A29.285,29.285,0,0,0,246.527,51a29.287,29.287,0,0,0,1.731,10.492,9.657,9.657,0,0,0,1.784,3.025,2.2,2.2,0,0,0,3.638,0,9.657,9.657,0,0,0,1.784-3.025A29.291,29.291,0,0,0,257.194,51a29.293,29.293,0,0,0-1.731-10.492,9.658,9.658,0,0,0-1.784-3.025,2.2,2.2,0,0,0-3.638,0A9.657,9.657,0,0,0,248.258,40.508Zm.676-4.072a3.7,3.7,0,0,1,5.853,0,11.137,11.137,0,0,1,2.091,3.506A30.784,30.784,0,0,1,258.717,51a30.78,30.78,0,0,1-1.84,11.058,11.137,11.137,0,0,1-2.091,3.506,3.7,3.7,0,0,1-5.853,0,11.137,11.137,0,0,1-2.091-3.506A30.784,30.784,0,0,1,245,51a30.778,30.778,0,0,1,1.84-11.058A11.137,11.137,0,0,1,248.934,36.436Z" transform="translate(-130.86)" fill="#007fff" fill-rule="evenodd"/>
      <path id="Path_29068" data-name="Path 29068" d="M131.5,178.258a32.665,32.665,0,0,0-20.984,0,9.658,9.658,0,0,0-3.025,1.784,2.2,2.2,0,0,0,0,3.638,9.657,9.657,0,0,0,3.025,1.784,32.665,32.665,0,0,0,20.984,0,9.657,9.657,0,0,0,3.025-1.784,2.2,2.2,0,0,0,0-3.638A9.657,9.657,0,0,0,131.5,178.258Zm4.072.676a3.7,3.7,0,0,1,0,5.853,11.137,11.137,0,0,1-3.506,2.091,34.149,34.149,0,0,1-22.115,0,11.137,11.137,0,0,1-3.506-2.091,3.7,3.7,0,0,1,0-5.853,11.137,11.137,0,0,1,3.506-2.091,34.149,34.149,0,0,1,22.115,0A11.137,11.137,0,0,1,135.571,178.934Z" transform="translate(-0.007 -130.86)" fill="#007fff" fill-rule="evenodd"/>
    </g>
  </g>
</svg>
