<svg id="Group_171979" data-name="Group 171979" xmlns="http://www.w3.org/2000/svg" width="58.733" height="58.734" viewBox="0 0 58.733 58.734">
  <path id="Path_26889" data-name="Path 26889" d="M29.366,0A29.367,29.367,0,1,1,0,29.367,29.367,29.367,0,0,1,29.366,0Z" transform="translate(0 0)" fill="#fff"/>
  <path id="facebook" d="M20.813,1H26a.979.979,0,0,1,.979.979V8.9A.979.979,0,0,1,26,9.875H20.813a.751.751,0,0,0-.75.75v4.209H26a.979.979,0,0,1,.95,1.216l-1.729,6.917a.979.979,0,0,1-.95.741H20.063V36.565a.979.979,0,0,1-.979.979H12.167a.979.979,0,0,1-.979-.979V23.71H6.979A.979.979,0,0,1,6,22.731V15.813a.979.979,0,0,1,.979-.979h4.209V10.625A9.636,9.636,0,0,1,20.813,1Zm4.209,1.958H20.813a7.676,7.676,0,0,0-7.668,7.668v5.188a.979.979,0,0,1-.979.979H7.958v4.959h4.209a.979.979,0,0,1,.979.979V35.586h4.959V22.731a.979.979,0,0,1,.979-.979h4.424l1.24-4.959H19.084a.979.979,0,0,1-.979-.979V10.625a2.711,2.711,0,0,1,2.708-2.708h4.209Z" transform="translate(12.599 9.767)" fill="#012133"/>
</svg>
