<svg id="Group_171980" data-name="Group 171980" xmlns="http://www.w3.org/2000/svg" width="59.239" height="59.24" viewBox="0 0 59.239 59.24">
  <ellipse id="Ellipse_6" data-name="Ellipse 6" cx="29.619" cy="29.62" rx="29.619" ry="29.62" transform="translate(0 0)" fill="#fff"/>
  <g id="linkedin" transform="translate(14.211 14.492)">
    <path id="Path_47" data-name="Path 47" d="M18.816,7a9.827,9.827,0,0,1,9.816,9.816V26.934a1.144,1.144,0,0,1-1.144,1.144H21.707a1.144,1.144,0,0,1-1.144-1.144V16.816a1.746,1.746,0,1,0-3.493,0V26.934a1.144,1.144,0,0,1-1.144,1.144H10.144A1.144,1.144,0,0,1,9,26.934V16.816A9.827,9.827,0,0,1,18.816,7Zm7.528,18.79V16.816a7.528,7.528,0,1,0-15.056,0V25.79h3.493V16.816a4.035,4.035,0,1,1,8.07,0V25.79Z" transform="translate(2.563 1.672)" fill="#012133"/>
    <path id="Rectangle_2" data-name="Rectangle 2" d="M.144-1H5.926A1.144,1.144,0,0,1,7.07.144V17.488a1.144,1.144,0,0,1-1.144,1.144H.144A1.144,1.144,0,0,1-1,17.488V.144A1.144,1.144,0,0,1,.144-1ZM4.781,1.288H1.288V16.344H4.781Z" transform="translate(1 11.117)" fill="#012133"/>
    <path id="Ellipse_4" data-name="Ellipse 4" d="M3.035-1A4.035,4.035,0,1,1-1,3.035,4.039,4.039,0,0,1,3.035-1Zm0,5.781A1.746,1.746,0,1,0,1.288,3.035,1.748,1.748,0,0,0,3.035,4.781Z" transform="translate(1 1)" fill="#012133"/>
  </g>
</svg>
