<svg xmlns="http://www.w3.org/2000/svg" width="21.073" height="21.071" viewBox="0 0 21.073 21.071">
  <path id="Icon_ionic-ios-call" data-name="Icon ionic-ios-call" d="M24.954,21a17.7,17.7,0,0,0-3.7-2.474c-1.108-.532-1.514-.521-2.3.044-.653.472-1.075.911-1.827.746a10.9,10.9,0,0,1-3.67-2.715,10.819,10.819,0,0,1-2.715-3.67c-.159-.757.28-1.174.746-1.827.565-.784.581-1.19.044-2.3a17.35,17.35,0,0,0-2.474-3.7c-.806-.806-.987-.631-1.432-.472a8.147,8.147,0,0,0-1.311.7A3.955,3.955,0,0,0,4.745,7c-.313.675-.675,1.931,1.168,5.211a29.079,29.079,0,0,0,5.113,6.819h0l.005.005.005.005h0a29.193,29.193,0,0,0,6.819,5.113c3.28,1.843,4.537,1.481,5.211,1.168a3.888,3.888,0,0,0,1.662-1.574,8.147,8.147,0,0,0,.7-1.311C25.585,21.989,25.766,21.808,24.954,21Z" transform="translate(-4.49 -4.502)" fill="#007fff"/>
</svg>
