<svg id="Group_171981" data-name="Group 171981" xmlns="http://www.w3.org/2000/svg" width="59.239" height="59.24" viewBox="0 0 59.239 59.24">
  <ellipse id="Ellipse_7" data-name="Ellipse 7" cx="29.619" cy="29.62" rx="29.619" ry="29.62" transform="translate(0 0)" fill="#fff"/>
  <path id="twitter" d="M23.314,1.99a7.442,7.442,0,0,1,5.163,2.081,14.72,14.72,0,0,0,3.682-1.887.979.979,0,0,1,1.515,1.032,12.109,12.109,0,0,1-2.911,5.4,7.485,7.485,0,0,1,.053.862,22.828,22.828,0,0,1-1.574,8.564,18.717,18.717,0,0,1-4.26,6.423,19.159,19.159,0,0,1-13.539,5.38A22.633,22.633,0,0,1,.5,26.927a.979.979,0,0,1,.514-1.834c.209.008.42.012.629.012a15.748,15.748,0,0,0,7.4-1.838,15.476,15.476,0,0,1-4.361-3.506,12.791,12.791,0,0,1-2.651-5.2A17.182,17.182,0,0,1,2.35,5.815c.13-.453.272-.887.422-1.29.048-.128.095-.248.139-.357l.041-.1a.979.979,0,0,1,1.714-.206A14.418,14.418,0,0,0,15.872,9.978V9.526A7.444,7.444,0,0,1,23.314,1.99Zm4.879,4.18a.979.979,0,0,1-.739-.337A5.485,5.485,0,0,0,17.83,9.507s0,.009,0,.013v1.443a.979.979,0,0,1-.954.979c-.141,0-.284.006-.425.006A16.379,16.379,0,0,1,4.211,6.44a16.638,16.638,0,0,0-.627,5.223c.243,4.832,2.9,8.408,7.894,10.628a.979.979,0,0,1,.152,1.7,17.71,17.71,0,0,1-6.715,2.768,20.029,20.029,0,0,0,6.53,1.12c8.654,0,17.415-6.322,17.415-18.405a5.521,5.521,0,0,0-.1-1.014.979.979,0,0,1,.274-.881,10.158,10.158,0,0,0,1.777-2.353,16.7,16.7,0,0,1-2.337.9A.978.978,0,0,1,28.193,6.17Z" transform="translate(13.399 13.673)" fill="#012133" stroke="#012031" stroke-linecap="round" stroke-width="0.2"/>
</svg>
