<svg xmlns="http://www.w3.org/2000/svg" xmlns:xlink="http://www.w3.org/1999/xlink" width="86" height="93" viewBox="0 0 86 93">
  <defs>
    <clipPath id="clip-Artboard_3">
      <rect width="86" height="93"/>
    </clipPath>
  </defs>
  <g id="Artboard_3" data-name="Artboard – 3" clip-path="url(#clip-Artboard_3)">
    <path id="Path_26371" data-name="Path 26371" d="M202.313,74.526a42.9,42.9,0,0,1-56.338,40.72L148.044,119h0a1.234,1.234,0,1,1-2.16,1.189l-3.675-6.667-.005-.01c-.011-.022-.022-.043-.032-.066l-.022-.047-.021-.057c-.007-.019-.014-.039-.021-.059s-.007-.03-.011-.045-.014-.048-.019-.072l-.006-.041a.555.555,0,0,0-.012-.076.412.412,0,0,1,0-.06v-.175c0-.012.007-.052.012-.077s0-.028.006-.042a.479.479,0,0,0,.014-.064c.005-.022.009-.037.014-.055s.011-.035.017-.052.016-.044.024-.066v-.011h0c.005-.011.011-.024.018-.035s.02-.043.031-.065.017-.032.027-.047.023-.038.035-.055l.034-.048a.571.571,0,0,1,.037-.048l.04-.047.04-.042.047-.045.041-.037.055-.042.042-.03c.021-.014.042-.027.064-.039l.031-.019,6.672-3.676a1.234,1.234,0,1,1,1.189,2.16l-4.344,2.395h0a40.418,40.418,0,0,0,40.517-68.009A1.235,1.235,0,0,1,188.39,42.9a42.761,42.761,0,0,1,13.926,31.627Zm-83.289,0a40.435,40.435,0,0,1,53.641-38.2l-4.344,2.395h0a1.234,1.234,0,1,0,1.189,2.16l6.647-3.663.022-.012.024-.014c.024-.014.05-.029.073-.045l.035-.026.062-.047.037-.033.05-.048.038-.04c.014-.016.028-.032.041-.048h0c.013-.016.025-.032.037-.049s.024-.031.034-.047l.035-.057c.011-.019.019-.03.027-.047l.032-.067c.01-.023.011-.022.016-.033V36.6c.01-.024.017-.047.026-.071l.017-.047c.006-.021.01-.041.016-.062l.014-.057a.271.271,0,0,1,.008-.054.229.229,0,0,0,.009-.066.457.457,0,0,0,0-.055v-.181a.506.506,0,0,0-.014-.092v-.026c-.006-.028-.014-.055-.021-.083l-.009-.034a.647.647,0,0,0-.023-.066c-.008-.022-.011-.033-.019-.05l-.024-.052v0a.606.606,0,0,0-.03-.061v-.011l-3.683-6.673a1.234,1.234,0,0,0-2.16,1.189l2.068,3.752h0a42.879,42.879,0,0,0-42.41,72.35,1.235,1.235,0,0,0,1.665-1.818,40.522,40.522,0,0,1-13.127-29.81Zm18.2-9.054a18.713,18.713,0,0,0,1.8.865,1.235,1.235,0,0,0,.952-2.273,16.22,16.22,0,0,1-1.556-.749,1.235,1.235,0,0,0-1.194,2.161Zm0,12.819h0a18.533,18.533,0,0,0,1.8.864,1.215,1.215,0,0,0,.475.1,1.235,1.235,0,0,0,.477-2.367,15.848,15.848,0,0,1-1.555-.747,1.235,1.235,0,1,0-1.195,2.156Zm2.75,11.411h0a16.116,16.116,0,0,1-1.555-.749,1.235,1.235,0,0,0-1.195,2.161,18.535,18.535,0,0,0,1.8.864,1.235,1.235,0,1,0,.952-2.273ZM153.5,100.877a39.53,39.53,0,0,1-14.082-2.323c-3.6-1.426-5.792-3.367-6.306-5.543a1.232,1.232,0,0,1-.117-.523V53.538c.011-2.565,2.3-4.88,6.434-6.519h0a43.7,43.7,0,0,1,28.143,0c4.138,1.639,6.423,3.954,6.434,6.519V75.095l10.976,3.164h0a1.235,1.235,0,0,1,.891,1.184v8.048a17.39,17.39,0,0,1-12.937,16.828,1.233,1.233,0,0,1-.626,0,17.258,17.258,0,0,1-8.033-4.7,43.993,43.993,0,0,1-10.776,1.262Zm29.908-20.508-10.785-3.108-10.788,3.108V87.49a14.923,14.923,0,0,0,10.788,14.358A14.92,14.92,0,0,0,183.411,87.49ZM135.464,53.552c.008,1.453,1.827,3.038,4.867,4.242h0a41.421,41.421,0,0,0,26.34,0c3.042-1.2,4.86-2.791,4.867-4.243-.009-1.448-1.83-3.031-4.877-4.237h0a41.2,41.2,0,0,0-26.32.005c-3.047,1.2-4.87,2.785-4.876,4.233Zm0,12.821c0,1.455,1.819,3.045,4.867,4.252a41.421,41.421,0,0,0,26.34,0c3.047-1.207,4.867-2.8,4.867-4.252V57.907a15.4,15.4,0,0,1-3.959,2.2,43.839,43.839,0,0,1-28.164,0,15.388,15.388,0,0,1-3.95-2.2Zm0,12.819c0,1.456,1.819,3.045,4.867,4.252a37.036,37.036,0,0,0,13.17,2.149,45.468,45.468,0,0,0,5.87-.372V79.443a1.235,1.235,0,0,1,.891-1.184l11.28-3.25V70.72a15.474,15.474,0,0,1-3.96,2.2,43.852,43.852,0,0,1-28.164,0,15.476,15.476,0,0,1-3.954-2.2Zm4.867,17.073a37.035,37.035,0,0,0,13.17,2.149,42.731,42.731,0,0,0,9.028-.915,17.406,17.406,0,0,1-3.154-9.793,48.261,48.261,0,0,1-5.874.354,39.515,39.515,0,0,1-14.083-2.323,15.411,15.411,0,0,1-3.954-2.2v8.473c0,1.456,1.817,3.045,4.865,4.252Z" transform="translate(-116.542 -28.276)" fill="#007fff"/>
  </g>
</svg>
