<svg xmlns="http://www.w3.org/2000/svg" xmlns:xlink="http://www.w3.org/1999/xlink" width="80" height="93" viewBox="0 0 80 93">
  <defs>
    <clipPath id="clip-Artboard_4">
      <rect width="80" height="93"/>
    </clipPath>
  </defs>
  <g id="Artboard_4" data-name="Artboard – 4" clip-path="url(#clip-Artboard_4)">
    <g id="Group_165038" data-name="Group 165038" transform="translate(14384.362 -12372)">
      <path id="Path_26372" data-name="Path 26372" d="M182.285,47.426a1.081,1.081,0,0,0-1.081,1.08l-.236,8.175a1.081,1.081,0,1,0,2.162.068l.237-8.175a1.081,1.081,0,0,0-1.081-1.148ZM157.051,59.384a1.081,1.081,0,0,0-.574,1.824l3.581,3.75a1.081,1.081,0,1,0,1.553-1.486l-3.547-3.75a1.08,1.08,0,0,0-1.013-.338Zm50.1,0a1.079,1.079,0,0,0-.642.338l-3.547,3.75a1.081,1.081,0,1,0,1.553,1.486l3.581-3.75a1.081,1.081,0,0,0-.945-1.824Zm-24.861,4.154a23.315,23.315,0,0,0-23.172,23.476c0,5.449,2.323,10.064,4.763,14.187,3.959,6.69,4.528,11.369,4.526,14.458,0,1.544-.182,2.669-.135,3.648a2.424,2.424,0,0,0,.507,1.52,2.1,2.1,0,0,0,1.621.676h23.781a2.1,2.1,0,0,0,1.621-.676,2.424,2.424,0,0,0,.507-1.52c.047-.979-.134-2.1-.135-3.648,0-3.088.567-7.768,4.526-14.458,2.44-4.124,4.763-8.738,4.763-14.187a23.315,23.315,0,0,0-23.172-23.476Zm0,2.162A21.113,21.113,0,0,1,203.3,87.014c0,4.838-2.077,9.082-4.459,13.107-4.142,7-4.832,12.17-4.83,15.538,0,1.684.163,2.959.135,3.547a.756.756,0,0,0,0,.135H183.366V93.669a5.979,5.979,0,1,0-2.163,0v25.672H170.428a.752.752,0,0,0,0-.135c-.028-.587.134-1.863.135-3.547,0-3.368-.688-8.54-4.83-15.538-2.382-4.025-4.459-8.269-4.459-13.107A21.113,21.113,0,0,1,182.284,65.7ZM143.169,79.786a1.084,1.084,0,1,0,.169,2.162l8.208.2a1.081,1.081,0,1,0,.068-2.162l-8.209-.2a1.122,1.122,0,0,0-.236,0Zm77.995,0-8.209.2a1.081,1.081,0,1,0,.068,2.162l8.208-.2a1.081,1.081,0,1,0-.067-2.162Zm-38.881,4.222a3.817,3.817,0,1,1-3.817,3.817A3.805,3.805,0,0,1,182.283,84.008Zm-11.62,41.886a1.087,1.087,0,1,0,.236,2.162h22.767a1.081,1.081,0,1,0,0-2.162H170.9a1.121,1.121,0,0,0-.236,0Zm2.2,6.182a1.086,1.086,0,0,0,.2,2.162H191.5a1.081,1.081,0,1,0,0-2.162H173.062a1.015,1.015,0,0,0-.2,0Zm5.945,6.181a1.087,1.087,0,1,0,.236,2.162h6.486a1.081,1.081,0,1,0,0-2.162H179.04a1.121,1.121,0,0,0-.236,0Z" transform="translate(-14526.531 12324.574)" fill="#007fff" stroke="#007fff" stroke-width="1"/>
    </g>
  </g>
</svg>
