<svg xmlns="http://www.w3.org/2000/svg" xmlns:xlink="http://www.w3.org/1999/xlink" width="96" height="93" viewBox="0 0 96 93">
  <defs>
    <clipPath id="clip-Artboard_2">
      <rect width="96" height="93"/>
    </clipPath>
  </defs>
  <g id="Artboard_2" data-name="Artboard – 2" clip-path="url(#clip-Artboard_2)">
    <g id="Group_165034" data-name="Group 165034" transform="translate(17916.277 -12283.013)">
      <path id="Path_26363" data-name="Path 26363" d="M169.913,90.976H152.869a.781.781,0,0,1-.778-.778V79.4a.266.266,0,0,0-.272-.272h-5.292a.781.781,0,0,1-.778-.778V67.024a10.588,10.588,0,0,0-10.565-10.565h-7.374a10.575,10.575,0,0,0-10.565,10.565V78.349a.781.781,0,0,1-.778.778h-5.292a.283.283,0,0,0-.292.272V90.2a.781.781,0,0,1-.778.778H93.037a8.943,8.943,0,0,1-8.931-8.931V30.815a8.943,8.943,0,0,1,8.931-8.931h76.876a8.943,8.943,0,0,1,8.931,8.931V82.045a8.931,8.931,0,0,1-8.931,8.931ZM153.628,89.42h16.266a7.382,7.382,0,0,0,7.374-7.374V30.815a7.382,7.382,0,0,0-7.374-7.374H93.037a7.382,7.382,0,0,0-7.374,7.374V82.045a7.382,7.382,0,0,0,7.374,7.374H109.3V79.4a1.844,1.844,0,0,1,1.849-1.829h4.514V67.024A12.149,12.149,0,0,1,127.789,54.9h7.374a12.124,12.124,0,0,1,12.122,12.122V77.57H151.8a1.827,1.827,0,0,1,1.829,1.829Z" transform="translate(-17999.383 12262.116)" fill="#007fff" stroke="#0888ed" stroke-width="1"/>
      <path id="Path_26364" data-name="Path 26364" d="M178.518,116.077H85.433a.778.778,0,0,1,0-1.557h93.084a.778.778,0,0,1,0,1.557Z" transform="translate(-17999.836 12185.96)" fill="#007fff" stroke="#0888ed" stroke-width="1"/>
      <path id="Path_26365" data-name="Path 26365" d="M262.673,371.235H233a7.146,7.146,0,0,1-7.141-7.141V336.737a1.844,1.844,0,0,1,1.849-1.829h40.646a1.827,1.827,0,0,1,1.829,1.829v27.006a7.511,7.511,0,0,1-7.511,7.491Zm-34.985-34.77a.283.283,0,0,0-.292.272v27.357a5.6,5.6,0,0,0,5.584,5.584h29.673a5.946,5.946,0,0,0,5.934-5.934V336.738a.266.266,0,0,0-.272-.272Z" transform="translate(-18115.918 12004.778)" fill="#007fff" stroke="#0888ed" stroke-width="1"/>
      <path id="Path_26366" data-name="Path 26366" d="M292.364,231.752H262.3a.781.781,0,0,1-.778-.778V219.611a12.149,12.149,0,0,1,12.122-12.122h7.374a12.124,12.124,0,0,1,12.122,12.122v11.363a.781.781,0,0,1-.778.778ZM263.081,230.2h28.5V219.611a10.588,10.588,0,0,0-10.565-10.565h-7.374a10.575,10.575,0,0,0-10.565,10.565Z" transform="translate(-18145.24 12109.529)" fill="#007fff" stroke="#0888ed" stroke-width="1"/>
      <path id="Path_26367" data-name="Path 26367" d="M333.491,412.617h-2.257a.781.781,0,0,1-.778-.778v-5.39a3.911,3.911,0,1,1,3.813,0v5.39a.781.781,0,0,1-.778.778Zm-1.479-1.557h.7v-5.1a.783.783,0,0,1,.486-.72,2.377,2.377,0,0,0,1.518-2.2,2.354,2.354,0,1,0-3.191,2.2.783.783,0,0,1,.486.72Z" transform="translate(-18200.26 11951.994)" fill="#007fff" stroke="#0888ed" stroke-width="1"/>
      <path id="Path_26368" data-name="Path 26368" d="M127.583,61.351a3.113,3.113,0,1,1,3.113-3.113A3.122,3.122,0,0,1,127.583,61.351Zm0-4.65a1.557,1.557,0,1,0,1.557,1.557A1.561,1.561,0,0,0,127.583,56.7Z" transform="translate(-18032.566 12234.789)" fill="#007fff" stroke="#0888ed" stroke-width="1"/>
      <path id="Path_26369" data-name="Path 26369" d="M181.173,61.351a3.113,3.113,0,1,1,3.113-3.113A3.122,3.122,0,0,1,181.173,61.351Zm0-4.65a1.557,1.557,0,1,0,1.557,1.557A1.561,1.561,0,0,0,181.173,56.7Z" transform="translate(-18076.623 12234.789)" fill="#007fff" stroke="#0888ed" stroke-width="1"/>
      <path id="Path_26370" data-name="Path 26370" d="M234.773,61.351a3.113,3.113,0,1,1,3.113-3.113A3.122,3.122,0,0,1,234.773,61.351Zm0-4.65a1.557,1.557,0,1,0,1.557,1.557A1.561,1.561,0,0,0,234.773,56.7Z" transform="translate(-18120.688 12234.789)" fill="#007fff" stroke="#0888ed" stroke-width="1"/>
    </g>
  </g>
</svg>
