<svg xmlns="http://www.w3.org/2000/svg" xmlns:xlink="http://www.w3.org/1999/xlink" width="89" height="93" viewBox="0 0 89 93">
  <defs>
    <clipPath id="clip-Artboard_1">
      <rect width="89" height="93"/>
    </clipPath>
  </defs>
  <g id="Artboard_1" data-name="Artboard – 1" clip-path="url(#clip-Artboard_1)">
    <g id="Group_165037" data-name="Group 165037" transform="translate(-0.146)">
      <path id="Path_26360" data-name="Path 26360" d="M204.815,101.645a4.556,4.556,0,0,0-4.324,3.139H185.226V97.808h2.352A19.033,19.033,0,0,0,192.6,60.414,15.349,15.349,0,0,0,172.514,48.7a19.081,19.081,0,0,0-34.84,10.758c0,.258.005.519.017.779A19.033,19.033,0,0,0,142,97.807h2.352v6.977H129.089a4.547,4.547,0,1,0,0,2.815h16.673a1.408,1.408,0,0,0,1.409-1.409V97.806h7.6v17.4H140.514a4.547,4.547,0,1,0,0,2.815h15.67a1.408,1.408,0,0,0,1.409-1.409v-18.8h5.79v26.663a4.547,4.547,0,1,0,2.815,0V97.808h5.79v18.8a1.408,1.408,0,0,0,1.409,1.409h15.669a4.547,4.547,0,1,0,0-2.815H174.805v-17.4h7.6v8.385a1.408,1.408,0,0,0,1.409,1.409h16.673a4.548,4.548,0,1,0,4.324-5.956Zm-80.051,6.277a1.731,1.731,0,1,1,1.731-1.731A1.732,1.732,0,0,1,124.765,107.922Zm11.425,10.421a1.731,1.731,0,1,1,1.731-1.731A1.732,1.732,0,0,1,136.189,118.343Zm28.6,12.179a1.731,1.731,0,0,1,0-3.461h0a1.731,1.731,0,0,1,0,3.461Zm28.6-15.64a1.731,1.731,0,1,1-1.731,1.731A1.732,1.732,0,0,1,193.389,114.882Zm-67.6-36.11a16.362,16.362,0,0,1,13.625-16.009,1.409,1.409,0,0,0,1.175-1.542A16.264,16.264,0,0,1,170.736,51.15a1.407,1.407,0,0,0,1.774.571,12.525,12.525,0,0,1,17.431,10,1.41,1.41,0,0,0,1.1,1.212,16.217,16.217,0,0,1-3.461,32.06H142a16.237,16.237,0,0,1-16.218-16.219Zm79.03,29.15a1.731,1.731,0,1,1,1.731-1.731A1.732,1.732,0,0,1,204.814,107.922Z" transform="translate(-120.217 -40.375)" fill="#007fff"/>
    </g>
  </g>
</svg>
